<svg width="128" height="24" viewBox="0 0 128 24" fill="none" xmlns="http://www.w3.org/2000/svg"><g clip-path="url(#a)"><path d="M31.904 18.087c.153 1.023.896 2.226 2.942 2.226 1.742 0 2.586-.614 2.586-1.613 0-.998-.588-1.433-1.663-1.561l-3.608-.384c-3.148-.333-4.991-2.15-4.991-5.119 0-3.303 2.507-5.504 7.524-5.504 5.401 0 7.55 2.534 7.755 5.528h-5.067c-.154-1.125-1.075-1.842-2.663-1.842-1.407 0-2.38.513-2.38 1.434 0 .741.462 1.304 1.689 1.407l2.944.256c3.967.333 5.63 2.225 5.63 5.374 0 3.352-2.1 5.708-7.857 5.708s-7.577-2.917-7.832-5.911h4.99v.001ZM67.352 15.862v7.702h-5.017V16.68c0-1.382-.511-2.278-1.892-2.278-1.512 0-2.15.947-2.15 2.943v6.22H53.35V16.68c0-1.382-.513-2.278-1.894-2.278-1.51 0-2.15.947-2.15 2.943v6.22h-5.015V10.767h5.015v1.971c.794-1.484 2.15-2.381 4.276-2.381s3.557.998 4.248 2.713c.819-1.663 2.201-2.713 4.48-2.713 3.454 0 5.043 2.15 5.043 5.504h-.002ZM69.723 11.56V6.543h5.017v5.017h-5.017Zm0 12.004V12.751h5.017v10.813h-5.017ZM77.11 23.564V6.544h5.015v17.022h-5.016v-.002ZM93.234 19.619h4.95c-.488 2.354-2.391 4.355-7.1 4.355-5.427 0-7.27-3.404-7.27-6.834 0-3.685 2.176-6.782 7.27-6.782 5.606 0 7.116 3.43 7.116 6.961 0 .434-.027.844-.077 1.1h-9.418c.255 1.639 1.075 2.253 2.482 2.253.975 0 1.689-.466 2.049-1.055l-.002.002Zm-4.505-3.963h4.735c-.153-1.331-.794-2.072-2.304-2.072-1.407 0-2.148.537-2.431 2.072ZM107.993 23.564h-5.132l.012-17.02h5.119l.003 17.02h-.002ZM127.442 15.016c0 4.377-2.585 8.548-8.086 8.548h-9.01V6.544h9.01c5.502 0 8.086 4.096 8.086 8.472Zm-9.291 4.504c2.739 0 3.942-1.536 3.942-4.504 0-2.969-1.256-4.427-3.942-4.427h-2.663v8.931h2.663ZM12.781 11.662H0v11.943h12.781V11.662Z" fill="#001096"></path><path d="M15.889 0c-.06 0-.117.006-.174.008-.06 0-.117-.008-.176-.008-3.262 0-6.171 2.126-6.171 6.811v4.855h12.748V6.811C22.116 2.126 19.17 0 15.89 0Z" fill="#FF9B00"></path></g><defs><clipPath id="a"><path fill="#fff" d="M0 0h127.442v24H0z"></path></clipPath></defs></svg>